<svg id="Layer_1" data-name="Layer 1" xmlns="http://www.w3.org/2000/svg" viewBox="0 0 506.71 506.71"><defs><style>.cls-1{fill:#fff;}</style></defs><path class="cls-1" d="M437,75C335.58-23.5,173.5-21.13,75,80.29-21.47,179.63-21.47,337.67,75,437c101.42,98.5,263.5,96.13,362-5.29C533.47,332.37,533.47,174.33,437,75ZM128.34,442.39a129.63,129.63,0,0,1,255.32,0A225.54,225.54,0,0,1,128.34,442.39ZM174.6,223.87a81.4,81.4,0,1,1,81.4,81.4h0A81.48,81.48,0,0,1,174.6,223.87Zm235,197.71a159.85,159.85,0,0,0-92.9-104.35,111.4,111.4,0,1,0-121.4,0,159.89,159.89,0,0,0-92.94,104.34A225.34,225.34,0,0,1,30,256C30,131.38,131.38,30,256,30S482,131.38,482,256a225.38,225.38,0,0,1-72.36,165.58Z" transform="translate(-2.65 -2.65)"/></svg>