<svg id="Layer_1" data-name="Layer 1" xmlns="http://www.w3.org/2000/svg" viewBox="0 0 512 512"><defs><style>.cls-1{fill:#0d01a4;}</style></defs><path class="cls-1" d="M437,75A256,256,0,0,0,75,437,256,256,0,0,0,437,75ZM128.34,442.39a129.63,129.63,0,0,1,255.32,0,225.52,225.52,0,0,1-255.32,0ZM174.6,223.87a81.4,81.4,0,1,1,81.4,81.4A81.49,81.49,0,0,1,174.6,223.87Zm235,197.71A159.86,159.86,0,0,0,316.7,317.23a111.4,111.4,0,1,0-121.4,0,159.87,159.87,0,0,0-92.94,104.34A225.39,225.39,0,0,1,30,256C30,131.38,131.38,30,256,30S482,131.38,482,256A225.41,225.41,0,0,1,409.64,421.58Z"/></svg>